<svg width="294" height="106" viewBox="0 0 294 106" fill="none" xmlns="http://www.w3.org/2000/svg">
<path d="M276.298 103.68L252.826 70.128L223.018 30.24H240.01L261.466 60.912L293.29 103.68H276.298ZM253.834 60.912L275.722 30.24H292.138L261.322 71.136L253.834 60.912ZM259.882 71.568L236.266 103.68H219.706L252.682 61.056L259.882 71.568Z" fill="#1E1506"/>
<path d="M195.201 104.976C188.289 104.976 182.529 103.344 177.921 100.08C173.313 96.72 170.289 92.064 168.849 86.112L170.289 85.824V103.68H156.033V0H171.009V47.088L169.425 46.656C171.057 41.088 174.225 36.72 178.929 33.552C183.729 30.384 189.489 28.8 196.209 28.8C202.833 28.8 208.545 30.384 213.345 33.552C218.241 36.72 221.985 41.136 224.577 46.8C227.265 52.464 228.609 59.088 228.609 66.672C228.609 74.352 227.217 81.072 224.433 86.832C221.649 92.592 217.761 97.056 212.769 100.224C207.777 103.392 201.921 104.976 195.201 104.976ZM192.033 92.592C198.561 92.592 203.745 90.288 207.585 85.68C211.425 81.072 213.345 74.736 213.345 66.672C213.345 58.704 211.425 52.512 207.585 48.096C203.745 43.584 198.513 41.328 191.889 41.328C185.361 41.328 180.129 43.632 176.193 48.24C172.353 52.752 170.433 59.04 170.433 67.104C170.433 74.976 172.353 81.216 176.193 85.824C180.129 90.336 185.409 92.592 192.033 92.592Z" fill="#1E1506"/>
<path d="M133.673 103.68V86.832L135.113 87.264C133.577 92.736 130.409 97.104 125.609 100.368C120.809 103.536 115.049 105.12 108.329 105.12C101.705 105.12 95.8965 103.536 90.9045 100.368C86.0085 97.2 82.1685 92.784 79.3845 87.12C76.6965 81.456 75.3525 74.832 75.3525 67.248C75.3525 59.568 76.7445 52.848 79.5285 47.088C82.3125 41.328 86.2005 36.864 91.1925 33.696C96.1845 30.528 102.041 28.944 108.761 28.944C115.769 28.944 121.529 30.624 126.041 33.984C130.649 37.248 133.673 41.856 135.113 47.808L133.097 48.096V0H147.929V103.68H133.673ZM112.073 92.592C118.697 92.592 123.929 90.336 127.769 85.824C131.609 81.216 133.529 74.88 133.529 66.816C133.529 58.944 131.561 52.752 127.625 48.24C123.785 43.632 118.553 41.328 111.929 41.328C105.401 41.328 100.217 43.632 96.3765 48.24C92.6325 52.752 90.7605 59.088 90.7605 67.248C90.7605 75.216 92.6325 81.456 96.3765 85.968C100.217 90.384 105.449 92.592 112.073 92.592Z" fill="#1E1506"/>
<path d="M58.32 103.68V86.832L59.76 87.264C58.224 92.736 55.056 97.104 50.256 100.368C45.456 103.536 39.696 105.12 32.976 105.12C26.352 105.12 20.544 103.536 15.552 100.368C10.656 97.2 6.816 92.784 4.032 87.12C1.344 81.456 0 74.832 0 67.248C0 59.568 1.392 52.848 4.176 47.088C6.96 41.328 10.848 36.864 15.84 33.696C20.832 30.528 26.688 28.944 33.408 28.944C40.416 28.944 46.176 30.624 50.688 33.984C55.296 37.248 58.32 41.856 59.76 47.808L57.744 48.096V0H72.576V103.68H58.32ZM36.72 92.592C43.344 92.592 48.576 90.336 52.416 85.824C56.256 81.216 58.176 74.88 58.176 66.816C58.176 58.944 56.208 52.752 52.272 48.24C48.432 43.632 43.2 41.328 36.576 41.328C30.048 41.328 24.864 43.632 21.024 48.24C17.28 52.752 15.408 59.088 15.408 67.248C15.408 75.216 17.28 81.456 21.024 85.968C24.864 90.384 30.096 92.592 36.72 92.592Z" fill="#1E1506"/>
</svg>
